# xmcd
#
# Track frame offsets: 
#        150
#        32563
#        56221
#        92235
#        122649
#        146098
#        175644
#        202499
#        233124
#        263461
#        296226
#
# Disc length: 4336 seconds
#
# Revision: 0
# Processed by: cddbd v1.5.2PL0 Copyright (c) Steve Scherf et al.
# Submitted via: ExactAudioCopy v1.0b3
#
DISCID=a710ee0b
DTITLE=Various Artist - Mega House Party Vol. 1 - CD 2
DYEAR=1900
DGENRE=
TTITLE0=Carol Jiani - Hit And Run Love (2006 Mondo Remix)
TTITLE1=Joe Face - Maniac (Extended Mix)
TTITLE2=Diva DJs Vs. Nicky French - Total Eclips Of The Heart 2006 (Sh
TTITLE2=anghai Surprize Mix)
TTITLE3=The Mysterious Girl - Hung Up (Tech-House Mix)
TTITLE4=Disco Deejays - Stayin' Alive (Club Mix)
TTITLE5=JPM Feat. Rocking J - Amigo (Electro Mix)
TTITLE6=Martha and The Muffins - Echo Beach 2006 (Club Mix)
TTITLE7=Cloudskippers Feat. Shena - The Real Thing (O'Heller Mix)
TTITLE8=DJs 4 Live Feat. DJ Tom - Everyone's A Winner (Club Mix)
TTITLE9=RuPaul Feat. Tom Trujillo - People Are People (Guiseppe D's Ru
TTITLE9=troactive Mix Show)
TTITLE10=Chico Del Mar Feat. Pit Bailay - Free Your Mind (Original Mix
TTITLE10=)
EXTD=
EXTT0=
EXTT1=
EXTT2=
EXTT3=
EXTT4=
EXTT5=
EXTT6=
EXTT7=
EXTT8=
EXTT9=
EXTT10=
PLAYORDER=
